<?xml version="1.0" encoding="utf-8"?>
<!-- Generator: Adobe Illustrator 13.0.0, SVG Export Plug-In . SVG Version: 6.00 Build 14948)  -->
<!DOCTYPE svg PUBLIC "-//W3C//DTD SVG 1.1//EN" "http://www.w3.org/Graphics/SVG/1.1/DTD/svg11.dtd" [
	<!ENTITY ns_flows "http://ns.adobe.com/Flows/1.0/">
	<!ENTITY ns_extend "http://ns.adobe.com/Extensibility/1.0/">
	<!ENTITY ns_ai "http://ns.adobe.com/AdobeIllustrator/10.0/">
	<!ENTITY ns_graphs "http://ns.adobe.com/Graphs/1.0/">
]>
<svg version="1.1" id="Layer_2" xmlns:x="&ns_extend;" xmlns:i="&ns_ai;" xmlns:graph="&ns_graphs;"
	 xmlns="http://www.w3.org/2000/svg" xmlns:xlink="http://www.w3.org/1999/xlink" xmlns:a="http://ns.adobe.com/AdobeSVGViewerExtensions/3.0/"
	 x="0px" y="0px" width="599.33398px" height="490.66748px" viewBox="0 0 599.33398 490.66748"
	 enable-background="new 0 0 599.33398 490.66748" xml:space="preserve">
<path fill="#67CCE6" stroke="#000000" stroke-width="0.75" d="M177.33301,210.5"/>
<path fill="#87C76B" stroke="#000000" stroke-width="0.75" d="M10.6665,46.33301v393.33447c0,0-1.28906,14.80273,15.66699,15.33203
	c21.33301,0.66797,182.6665,2,182.6665,2l0.5,8.16797c0,0,0.5,5.75,8.83398,5.83203c7.3623,0.07422,358,0,358,0
	s8.66602-0.66602,10-10.66602c1.33203-10,0-77.33398,0-77.33398s-0.00195-4.66602-6.66797-5.33203H571V354.3335l10,0.83398
	c0,0,7.33203,2.49805,6.66602-8.83398C587,334.99951,589,25.6665,589,25.6665s1.33203-9.3335-11.33398-9.3335s-96,0-96,0
	S477.66797,15.66602,477,23.66602c-0.66602,8,0,5.3335,0,5.3335v6.6665h-24.66602l0.33301-7.33301c0,0,2.33398-12-7-12
	C436.33496,16.33301,229,14.6665,229,14.6665s-16.5-2-16.66602,10.33301v5.3335H23.6665
	C23.6665,30.33301,10.6665,31.6665,10.6665,46.33301z"/>
<polygon fill="#67CCE6" stroke="#000000" stroke-width="0.75" points="20.33398,444.66748 20.33398,180.66602 28.33398,180.66602 
	28.33398,160 19.6665,160 19.6665,44.66602 220.33301,44.66602 220.33301,28.66602 575.66602,28.66602 575.66602,461.99951 
	220.33301,461.99951 220.33301,447.3335 "/>
<path fill="#FFFFFF" stroke="#000000" stroke-width="0.75" d="M379.1875,320.64795l-0.02148,0.01758c0,0,0.83398,1.16797,0.5,0.5
	C379.58691,321.00537,379.4082,320.82764,379.1875,320.64795z"/>
<path fill="#FFFFFF" stroke="#000000" stroke-width="0.75" d="M278.33398,362.74951l-0.78906-1.2207
	c0.0332,0.15625,0.06055,0.31445,0.0752,0.4707L278.33398,362.74951z"/>
<path fill="#FFFFFF" stroke="#000000" stroke-width="0.75" d="M264.33398,292.99951"/>
<path fill="#FFFFFF" stroke="#000000" stroke-width="0.75" d="M269.83398,294.24951"/>
<polygon fill="#FFFFFF" stroke="#000000" stroke-width="0.75" points="36.66748,59.33301 36.66748,428.66748 234,428.66748 
	234,445.3335 557.33301,445.3335 557.33301,43.99951 236,43.99951 236,58.6665 "/>
<polygon fill="#87C76B" stroke="#000000" stroke-width="0.75" points="50.6665,71.16357 50.6665,415.82959 252.66748,415.82959 
	252.66748,431.16357 547.33301,431.16357 547.33301,55.83057 251.33301,55.83057 251.33301,69.16357 "/>
<polygon fill="#67CCE6" stroke="#000000" stroke-width="0.75" points="128.66748,131.5 336.66699,131.5 336.66699,342.99951 
	202.16748,342.99951 202.16748,350.99951 122.16602,350.99951 122.16602,269.49951 128.16748,269.49951 "/>
<rect x="147.16699" y="150.49951" fill="#FFFFFF" stroke="#000000" stroke-width="0.75" width="168.5" height="172.5"/>
<rect x="157.16699" y="159.49951" fill="#87C76B" stroke="#000000" stroke-width="0.75" width="147" height="147"/>
<rect x="143.16699" y="290.99951" fill="#FFFFFF" stroke="#000000" stroke-width="0.75" width="34.5" height="35"/>
<path fill="#FFFFFF" stroke="#000000" stroke-width="0.75" d="M157.66602,192.49951c0,0,23.5-25,35.5-22.5h29v16h6.5v-8h13v-4.5
	h19.5v12.5h-16.5v10.5h16.5v8h-5.5v36.5h9v-9h7v7.5h7.5v9h-7v6.5h-42.5v-14h11.5v-5h-20v-11.5h-10v13h-54L157.66602,192.49951z"/>
<polyline fill="#FFFFFF" stroke="#000000" stroke-width="0.75" points="211.16602,224.5 211.16602,201.25 205.91602,201.25 
	205.91602,189.5 209.91602,189.5 209.91602,181.75 222.16602,181.75 "/>
<polygon fill="#FFFFFF" stroke="#000000" stroke-width="0.75" points="221.66602,189.25 221.66602,217 225.41602,217 
	225.41602,205.25 229.41602,205.25 229.41602,197.25 234.41602,197.25 234.41602,189 "/>
<polyline fill="none" stroke="#000000" stroke-width="2" points="304.41699,223 283.16699,223 283.16699,247.99951 
	278.91699,247.99951 "/>
<path fill="#87C76B" stroke="#000000" stroke-width="0.75" d="M162.16602,202.74951c0,0,4.25-10.75,12.5-11.5c0,0,10-2.5,12.25,3
	s2,9.75-2.5,14.5s-24,9.25-27.25,8.25"/>
<line fill="none" stroke="#000000" stroke-width="0.75" x1="211.66699" y1="169.74951" x2="211.66699" y2="159.74951"/>
<g>
	<path fill="#FFFFFF" stroke="#000000" stroke-width="0.75" d="M305.16699,227.57275"/>
	<path fill="#FFFFFF" stroke="#000000" stroke-width="0.75" d="M315.41699,227.62207"/>
	<line fill="none" stroke="#000000" stroke-width="0.75" x1="303.91699" y1="227.49951" x2="294.50098" y2="227.6665"/>
	<polyline fill="#FFFFFF" stroke="#000000" stroke-width="0.75" points="304.54199,227.625 290,227.5 290,243.5 315.5,243.5 
		315.5,248.3335 324.66699,248.3335 324.66699,227.66699 315.41699,227.62207 	"/>
	<line fill="none" stroke="#000000" stroke-width="0.75" x1="320.66699" y1="227.6665" x2="320.66699" y2="248.1665"/>
	<polyline fill="#FFFFFF" stroke="#000000" stroke-width="0.75" points="293.5,243.5 293.5,231 304.29199,231.125 
		304.16699,227.625 	"/>
</g>
<path fill="#FFFFFF" stroke="#000000" stroke-width="0.5" d="M193.79199,306.12451l-0.58887-1
	c-0.01465-0.15625-0.04199-0.31445-0.0752-0.4707l-4.21094-6.86328c0,0,0.41699-2.45703,4.41699-2.29102
	s8.58301-1.70703,12.08301,1.125c3.5,2.83398,25.75,6,37.625-0.125c0,0,10.875-4.54102,12.20703-5.875
	c1.33398-1.33398,11.83398-3.66602,12,1.83398c0.16797,5.5-0.83203,11.83203-1,12.66602c-0.16602,0.83203,3.83398,0.5,3.83398,0.5
	l0.66602-2.16797l8.33398-0.33203v-4l-6.83398-0.16602c0,0-2.66602-3.33398,0.5-5.33398h5.5v-4.33398h-6.16602
	c0,0-5.83398-0.99805-6.5-10.66602c-0.66602-9.66602,6.66602-9.66602,7.33398-9.66602c0.66602,0,3.33203,0,3.33203,0
	l7.66797,5.83203l2-3.16602l-4.5-2.5c0,0-4.5-1.66602-0.5-4.16699c0,0,10.33203-2.99902,12-2.33301
	c0,0,1.15332,0.57813,1.85352,1.14844l2.97852-2.48242c0,0-2.83203-1.83203-3-3.66602v-9.83398h-4.83203l0.66602,8.33398
	c0,0-7.33398,6.33398-9,6.5s-4.66797,1.16602-5.5-0.33398c-0.83398-1.5-0.83398-4.33301-0.83398-4.33301h-5.16602l0.33398,6
	c0,0-4.16797,4.99902-7.83398,5.33301s-16.66602-0.33203-16.66602-0.33203s-3-0.5-3.16699-3l-0.5-7.00098h-4.66699l0.16699,8.00098
	c0,0-1.83301,2.04102-2.83301,2.83203c-0.6543,0.51758-4.5752,4.59375-8.33398,0.83398c-0.66699-0.66602-1.41602-3.75-2-6.83398
	c0,0-2-7.66602,0.5-9.83301l1.66699-0.5l-0.16699-1.83301c0,0-5.16602,1.33398-5.16602-1.5l0.33301-3.66699l-2.33301-0.33301
	c0,0-0.66699,3.83398-2.66699,3.5c0,0-2.83301,1.16699-2-4.16699l-4.33301-1c0,0-0.66699,4.16602-4.16699,4.33301
	s-14,1.50098-15.66699-0.16602c-1.66602-1.66699-2.33301-2.83496-3.33301-5.83398c-1-2.99951-1.45801-5.29102-1.45801-5.29102
	l-5.625,0.25c0,0,4.41699,10.875,4.58301,12.875c0.16699,2,0.83301,12.66602-8.83301,15.83398
	c-9.66699,3.16602-18.625,5.54102-18.625,5.54102l0.125,5.95898c0,0,11-6.5,12.83301-4.33398s18.66699,29,19.16699,31.5l0.75,1.25"
	/>
<path fill="#87C76B" stroke="#000000" stroke-width="0.5" d="M202.16699,287.8335c0,0-5.83398,11.33398-17.33398,2.33398
	c0,0-8.66602-7-9.99902-17.00195c0,0,2.83301-5.66602,7.66602-2.16602c0,0,2.5,1.5,3,3.83398
	C186,277.16553,195.83398,288.66748,202.16699,287.8335z"/>
<path fill="#87C76B" stroke="#000000" stroke-width="0.5" d="M207.5,281.99951c0,0,12.16699-2.5,13-11.33398
	c0,0,0-12.66602-7.5-14.66602s-23.5-3.16602-27.16602,6.33398C182.16699,271.8335,199.16699,287.33154,207.5,281.99951z"/>
<path fill="#87C76B" stroke="#000000" stroke-width="0.5" d="M205.5,289.99951c0,0-2.16602,14.83398,35.33398,3.16602
	c0,0,19.16699-7,20.66699-13.5c0,0-3.5-9.66602-26.33398-6.83203C235.16699,272.8335,211.5,279.83154,205.5,289.99951z"/>
<polyline fill="#FFFFFF" stroke="#000000" stroke-width="0.75" points="315.91699,227.5 315.91699,231 304.41699,231.125 "/>
<polygon fill="#FFFFFF" stroke="#000000" stroke-width="0.75" points="174.66602,203.5 174.66602,191.25 180.16602,191.25 
	180.16602,208.75 157.41602,208.75 157.41602,202.75 "/>
<g>
	<polyline fill="none" stroke="#000000" stroke-width="2" points="43.5,148.66602 38.1665,148.66602 38.1665,191 43.5,191 	"/>
	<line fill="none" stroke="#000000" stroke-width="3" x1="40.1665" y1="158.66602" x2="40.1665" y2="179.99951"/>
</g>
<polygon fill="#FFFFFF" stroke="#000000" stroke-width="0.75" points="108.16748,354.8335 114.66748,354.8335 114.66748,319.8335 
	108.66748,319.8335 108.66748,325.8335 104.16748,325.8335 104.16748,333.3335 108.66748,333.3335 108.66748,341.8335 
	103.66748,341.8335 103.66748,349.3335 108.16748,349.5835 "/>
<polygon fill="#FFFFFF" stroke="#000000" stroke-width="0.75" points="117.5,172.16602 124,172.16602 124,137.16602 118,137.16602 
	118,143.16602 113.5,143.16602 113.5,150.66602 118,150.66602 118,159.16602 113,159.16602 113,166.66602 117.5,166.66602 "/>
<path fill="#FFFFFF" stroke="#000000" stroke-width="0.75" d="M230.75,373.8335H239v14.75c0,0-1.5,2.75-7.75,3.5s-119.5,0-119.5,0
	s-23.41602-1.08398-24-25.25c-0.48926-20.24609-0.4165-138.83398-0.4165-138.83398S96,199.33252,103.75,195.83252v-57.5h-26v43.25
	h-28v-28.5H54c0,0,4.75,0.5,5.25-4.75s0.25-8.75,0.25-8.75s-0.5-6.25,5.5-6.25s38.75,0,38.75,0v-4.5c0,0,4.25-12.25,16.5-15.5
	s47.5-8.25,59.5-14.75c0,0,32.75-13,39.75-19.25H239v21h-17.75v-10.75c0,0-26.25,12.5-34.25,14.75s-38,12.75-59,14.75
	c0,0-15.75,2.75-17,11.5s0,57.5,0,57.5s0.25,3.5,8,4.5s19.75,0,19.75,0v-11.5l9.08398-0.08301l0.25,12L157,193.08252v10
	l-10.41602,0.16699l0.25,10l-8.08398-0.16699v-12.5H113.5c0,0-12.9165,9.41699-17.5,29.5V364.8335c0,0,0.3335,17.66602,16.25,18.5
	c10.99609,0.57422,112.5,0,112.5,0s6.25-1.25,6.5-5.75L230.75,373.8335z"/>
<polyline fill="#FFFFFF" stroke="#000000" stroke-width="0.75" points="47.49951,173.16602 70.16602,173.16602 70.16602,138.5 
	78.74951,138.5 "/>
<rect x="78.66699" y="211.33301" fill="#231F20" stroke="#000000" stroke-width="0.75" width="8" height="9.3335"/>
<path fill="#FFFFFF" stroke="#000000" stroke-width="0.75" d="M249.01074,445.3335c-3.00781,0-15.34375,0-15.34375,0
	c0-4.71484,0-4.18945,0-16.33203"/>
<path fill="#FFFFFF" stroke="#000000" stroke-width="0.75" d="M229.33398,354.99951l0.5,20h10.5v-5.5h95c0,0,5.5,1.5,6,7.5
	s0,54.5,0,54.5h84.5v12.5h19v-11h110v-86h-32v48h-21.5v-5h-15.5v4.5h-22.5v7.5h-110v-63.5h-12.5v8c0,0,1,6-7,7
	S229.33398,354.99951,229.33398,354.99951z"/>
<line fill="none" stroke="#000000" stroke-width="0.75" x1="425.83398" y1="441.49951" x2="444.83398" y2="441.49951"/>
<line fill="none" stroke="#000000" stroke-width="0.75" x1="425.33398" y1="436.99951" x2="444.33398" y2="436.99951"/>
<line fill="none" stroke="#000000" stroke-width="0.75" x1="452.66699" y1="432.16748" x2="452.66699" y2="419.16748"/>
<rect x="38.33398" y="410.24951" fill="#FFFFFF" stroke="#000000" stroke-width="0.75" width="16" height="16.5"/>
<polyline fill="none" stroke="#000000" stroke-width="3" points="43.50098,400.49951 38.16797,400.49951 38.16797,427.16748 
	64.83447,427.16748 64.83447,423.16748 "/>
<rect x="545.33398" y="383.49951" fill="#FFFFFF" stroke="#000000" stroke-width="0.75" width="11" height="58"/>
<rect x="541.33398" y="428.99951" fill="#FFFFFF" stroke="#000000" stroke-width="0.75" width="16" height="16.5"/>
<polyline fill="none" stroke="#000000" stroke-width="3" points="521.83301,440.49951 521.83301,445.49951 557.83301,445.49951 
	558.66699,380.66748 "/>
<polygon fill="#FFFFFF" stroke="#000000" stroke-width="0.75" points="237.83301,109 229.33301,109 229.58301,100.75 
	237.08301,100.75 "/>
<path fill="#FFFFFF" stroke="#000000" stroke-width="0.75" d="M393.33398,119.99951
	c4.40332-3.72852,22.95898-20.87012,26.89355-25.24121c4.5-5,36.5-33.5,36.5-33.5v-5.75h-101c0,0-7,10.75-8,14.75s-4,5-6.5,4.5
	s-5,3-5,5s-5,3-8-0.5s-10.5-11.5-14.5-15.5s-15.5-2.5-16.5,2s-0.5,7-3,7.5s-5-1-6-4.5l-2.5,1.5c0,0,3,2.5,2.5,4.5s-4,4.5-7.5,5
	s-9,1-9,1s-3.5,0.5-4-3.5s-2.5-8.5-5.5-8.5s-2-6.5-4.5-7s-4.5,2.5-1,6s1.5,3,1.5,5.5s2.5,5.5,6,6.5s-1.5,6-0.5,9s-3,6.5,4,15
	s12,7.5,15.5,7s9.5,3.5,15.5-0.5s3-3.5,1-6s3-3,3-3s-2,5.5,4.5,8.5s26.5-2.5,29-7s12,0,16.5,1s19,5,23.5,8.5
	c3.39648,2.64111,7.2041,5.90869,8.10645,7.99121"/>
<polygon fill="#FFFFFF" stroke="#000000" stroke-width="0.75" points="249.33301,88.49951 249.33301,96.49951 254.33301,96.49951 
	254.33301,104 258.83301,104 258.83301,96.99951 262.33301,96.99951 262.33301,85.49951 258.83301,85.49951 258.83301,90.99951 
	256.83301,90.99951 256.83301,87.99951 "/>
<path fill="#87C76B" stroke="#000000" stroke-width="0.75" d="M327.83398,96.99951c0,0,13-14.5-10.5-19.5s-22.5-5.5-23.5-5
	s-3,7-4.5,7s-2.5,3.5-1,4.5s9.5,1.5,11.5,3s2.5-1,5-1S329.33398,79.49951,327.83398,96.99951z"/>
<rect x="228.33398" y="373.49951" fill="#FFFFFF" stroke="#000000" stroke-width="0.75" width="8.5" height="8"/>
<rect x="299.08398" y="64.24951" fill="#FFFFFF" stroke="#000000" stroke-width="0.75" width="13.5" height="11.5"/>
<path fill="#67CCE6" stroke="#000000" stroke-width="0.75" d="M283.33398,102.74951c0,0,13.25,3.5,22-1
	c3.85059,0.14258,14.6582-0.0791,16-0.75c2.5-1.25,10.5-3,5-11c-4.30078-6.25537-13.75-7.75-17.5-6.5s-8.5,2.75-13,1.5
	s-8.75,1.5-10.5-0.5s-6.25-6.5-8.25-5.5s-8,2.25-9-3.5s-1.75-5.75-3.75-6.25s-4-4.5-4-6s-5.5-5.5-5,0.75s3,2,3.25,5
	s-1.5,7.5,1.25,9.25s6.5,3.25,5.5,5.75s1.75,6.25,1.75,8.5s3.25,6.5,6.25,7.5S282.33398,103.49951,283.33398,102.74951z"/>
<rect x="217.16699" y="342.64404" fill="#FFFFFF" stroke="#000000" stroke-width="0.75" width="13" height="36.37891"/>
<path fill="#FFFFFF" stroke="#000000" stroke-width="0.75" d="M236.16699,416.50146c0-20.41992,0.66699-48.00195,0.66699-48.00195
	h15.5c-0.16992,42.64648-0.16699,42.32422-0.16699,63.33594"/>
<polygon fill="#FFFFFF" stroke="#000000" stroke-width="0.75" points="354.83301,340.49951 336.58301,340.49951 
	336.33301,327.99951 354.83301,328.24951 "/>
<path fill="#FFFFFF" stroke="#000000" stroke-width="0.75" d="M457.31738,54.91602c-0.30957,0.05322-0.4834,0.0835-0.4834,0.0835v57
	c0,0-0.5,3.5-7.5,5c-9.82715,2.10596-201,0-201,0s-9.5-4-10.5-10l-9.5-0.5c0,0-0.5,18.5,17,19s249.5,0,249.5,0s3.5,0.5,4.5,7
	s0,37,0,37h8v-23.5c0,0,12.75,9,13.75,26l12.25-1v-14c0,0-5.5-33.5-34.5-37l-18.5-1c0,0-9-2-9-11c0-7.87988,0-44.50439,0-53.50049"
	/>
<rect x="341.80664" y="121.74951" fill="#FFFFFF" width="7.55469" height="9.75"/>
<line fill="none" stroke="#000000" stroke-width="0.75" x1="336.58398" y1="230.49951" x2="336.58398" y2="247.74951"/>
<line fill="none" stroke="#000000" stroke-width="0.75" x1="506.00098" y1="287.3335" x2="518.00098" y2="285.99951"/>
<path fill="#FFFFFF" stroke="#000000" stroke-width="0.5" d="M365.83398,124.50146c0,1.54443,0,4.33301,0,4.33301h-3
	c0,0,0-2.79395,0-4.3374"/>
<rect x="360.66797" y="127.99951" fill="#231F20" stroke="#000000" stroke-width="0.75" width="8" height="7.3335"/>
<rect x="554.00098" y="358.66748" fill="none" width="35.33301" height="20.66602"/>
<line fill="none" stroke="#000000" stroke-width="0.75" x1="556.66797" y1="381.3335" x2="556.66797" y2="351.3335"/>
<polyline fill="none" stroke="#000000" stroke-width="3" points="555.33301,359.3335 555.33301,337.99951 550.66699,337.99951 "/>
<rect x="551.33398" y="348.66748" fill="#FFFFFF" stroke="#000000" stroke-width="0.75" width="6" height="34"/>
<g>
	<line fill="none" stroke="#000000" stroke-width="3" x1="452.66797" y1="47.33301" x2="480.66797" y2="47.33301"/>
	<polyline fill="none" stroke="#000000" stroke-width="3" points="436,48.66602 436,45.33301 496,45.33301 496,49.99951 	"/>
</g>
<rect x="454.00098" y="19.99951" fill="#FFFFFF" width="18" height="22.66699"/>
<rect x="504" y="103.33301" width="9.33398" height="8"/>
<polygon fill="#FFFFFF" stroke="#000000" stroke-width="0.75" points="510.66699,242.66699 518.66699,242.66699 
	518.66699,183.33301 510.66699,183.33301 510.66699,191.33301 506.00098,191.33301 506.00098,198.66699 510.00098,198.66699 
	510.00098,205.33301 506.66699,205.33301 506.66699,212.66699 510.66699,212.66699 510.66699,218.66699 505.33398,218.66699 
	505.33398,224.66699 510.00098,224.66699 510.00098,230 505.33398,230 505.33398,235.33301 510.66699,235.33301 "/>
<rect x="531" y="344.99951" fill="#FFFFFF" stroke="#000000" stroke-width="0.75" width="14" height="8.66602"/>
<rect x="503.33398" y="279.3335" fill="#FFFFFF" stroke="#000000" stroke-width="0.75" width="18" height="45.33398"/>
<rect x="536.00098" y="319.3335" fill="#FFFFFF" stroke="#000000" stroke-width="0.75" width="8" height="18.66602"/>
<polygon fill="#FFFFFF" stroke="#000000" stroke-width="0.75" points="523.33301,171.33301 533.33301,170.66699 532.66699,257.3335 
	546.66699,257.99951 547.33301,348.66748 520,349.3335 519.33301,287.3335 517.33301,286.66748 506.83301,286.74951 
	506.66699,251.3335 488.66699,251.3335 488,169.33301 "/>
<polygon fill="#FFFFFF" stroke="#000000" stroke-width="0.75" points="444.83301,401.49951 444.83301,340.99951 
	490.33301,340.99951 490.33301,322.49951 517.83301,322.49951 517.83301,392.49951 462.33301,392.49951 462.33301,401.99951 "/>
<g id="XMLID_1_">
	<g>
		<polygon fill="#FFFFFF" points="522.66699,282.3335 522.66699,395.8335 501.16699,395.8335 501.16699,391.3335 
			486.66699,391.3335 486.66699,396.3335 463.66699,396.3335 463.66699,402.8335 452.66699,402.8335 452.66699,398.8335 
			459.66699,398.8335 459.66699,391.8335 482.66699,391.8335 482.66699,387.8335 505.66699,387.8335 505.66699,391.8335 
			517.16699,391.8335 517.16699,282.3335 		"/>
	</g>
	<g>
		<polyline fill="none" stroke="#000000" stroke-width="0.75" points="452.66699,402.8335 352.66699,402.8335 352.66699,329.3335 
			356.66699,329.3335 356.66699,254.8335 		"/>
		<polygon fill="none" stroke="#000000" stroke-width="0.75" points="452.66699,402.8335 452.66699,398.8335 459.66699,398.8335 
			459.66699,391.8335 482.66699,391.8335 482.66699,387.8335 505.66699,387.8335 505.66699,391.8335 517.16699,391.8335 
			517.16699,282.3335 522.66699,282.3335 522.66699,395.8335 501.16699,395.8335 501.16699,391.3335 486.66699,391.3335 
			486.66699,396.3335 463.66699,396.3335 463.66699,402.8335 		"/>
		<line fill="none" stroke="#000000" stroke-width="0.75" x1="452.66797" y1="414.3335" x2="452.66797" y2="402.8335"/>
	</g>
</g>
<rect x="489.33398" y="383.49951" fill="#FFFFFF" stroke="#000000" stroke-width="0.75" width="9" height="12.5"/>
<path fill="#FFFFFF" stroke="#000000" stroke-width="0.75" d="M446.33398,357.99951c-1.56836,0.05469-12.33887-0.27148-14-6.5
	c-2-7.5-5-10.5-7-12.5s-5-8.5-3-10s8.5-4,11.5-0.5s22.1543,12.51172,25.5,12.75c3.5,0.25,13.5-0.5,13.5-0.5l23.5-20.75l6.5-0.25
	l-0.25-64.75l-23.5-1l0.25,16.5h-14.25l0.5-20.5l9.75,0.25l0.25-6.75l-14.5-1c0,0-6.25,11.5-14.25,2s-6-10-8-9.5s2-9.5,1-15.5
	s-5.5-10.5-4-14.5s10-6,14-3s8.5,3,8.5,3l14.25,1.25l0.5-7.25l15.75-1l-0.25-19.25l0.75-4.25h-23c0,0-18,12.5-33.5,12
	c0,0-9.5,0.5-16.5,4s-42,12-54-15s-6-24-6.5-27s0-11.5,0-11.5l-4.5,0.5v-4.5h-7.5v15c0,0,6.5,7,7.5,14.5s3,28,8,30.5s13.5,2.5,5,14
	s-14.5,16-17.5,20.5s2.5,2.5,2.5,2.5l15-12.5c0,0,3.5-0.5,2.5,5s-3.5,6.5,1.5,12s5,3.5,1,9.5s-6,7-14.5,7.5s-11,0-11,0l0.5,3.5l4,1
	l-1,21c0,0,5,7,6.5,10.5s6,4,6.5,7.5s1,15,1,18.5s6,14,8,17s5.5,8.5,5.5,8.5s2,4-6,7s-10,6.5-9,12.5s6,24,11,30s9,6.5,15,4.5
	s14-8,16.5-6.5s5,0.5,14,2c2.45703,0.41016,5.0752,3.10938,16-10c2.5-3,7.5-13,10-13c0.16309,0,3.37305,0.57617,3.5,0.5"/>
<path fill="#FFFFFF" stroke="#000000" stroke-width="0.75" d="M325.08398,232.74951
	c2.49414,0.13135,9.94336,0.05518,9.94336,0.05518s5.5,0.5,6-8.5s0-102,0-102h9v96h6v5.5h-3.5v44.99951c0,0,4,4.5,4.5,4.5
	s0.5,58,0.5,58l-17-0.5v-81c0,0-1.5-5.49951-15-5.99951c-0.33008-0.01221-0.19336,0.69482-0.19336,0.44482"/>
<line fill="none" stroke="#000000" stroke-width="0.75" x1="350.33398" y1="145.49951" x2="355.33398" y2="145.24951"/>
<rect x="336.33398" y="163.49951" fill="#FFFFFF" stroke="#000000" stroke-width="0.75" width="13" height="4.5"/>
<g id="XMLID_2_">
	<g>
		<polygon fill="#FFFFFF" points="511.08301,318.41943 511.08301,322.41943 498.41406,322.41943 498.41406,319.07959 
			501.75293,319.07959 501.75293,255.74951 480.41406,255.74951 480.41406,271.07959 464.41406,271.07959 464.41406,249.07959 
			474.41406,249.07959 474.41406,243.08008 460.41406,243.08008 460.41406,205.75 471.08301,205.75 471.08301,197.08008 
			487.75293,197.08008 488.41406,197.08008 488.41406,248.41943 506.41406,248.41943 506.41406,318.41943 		"/>
	</g>
	<g>
		<polyline fill="none" stroke="#000000" stroke-width="0.75" points="351.08301,173.75 488.41406,173.75 488.41406,197.08008 
			488.41406,248.41943 506.41406,248.41943 506.41406,318.41943 511.08301,318.41943 511.08301,322.41943 498.41406,322.41943 
			498.41406,319.07959 501.75293,319.07959 501.75293,255.74951 480.41406,255.74951 480.41406,271.07959 464.41406,271.07959 
			464.41406,249.07959 474.41406,249.07959 474.41406,243.08008 460.41406,243.08008 460.41406,205.75 471.08301,205.75 
			471.08301,197.08008 487.75293,197.08008 		"/>
	</g>
</g>
<path fill="#87C76B" stroke="#000000" stroke-width="0.75" d="M409.08398,382.74951c0,0,11.5,1.5,15.75-6s3.5-9,5.25-9.5
	s-5.75-7-5.25-9.5s-7.5-2-10.75,0.25s-13.5,16.75-13.75,21S407.08398,382.74951,409.08398,382.74951z"/>
<path fill="#87C76B" stroke="#000000" stroke-width="0.75" d="M384.08398,389.24951c0,0,12.75-11.25,18.25-27.75
	c0,0-0.75-7.5-12.5-8.75s-17.25-3.75-21.75-2s0,13.75,1.25,17s6,16.5,8,17.75S379.58398,391.24951,384.08398,389.24951z"/>
<path fill="#87C76B" stroke="#000000" stroke-width="0.75" d="M405.33496,353.3335c0,0,11.33301,2,14-2.66797
	c2.66699-4.66602-1.33398-10.66602-4.66699-13.33203C411.33496,334.66553,405.33496,347.99951,405.33496,353.3335z"/>
<path fill="#87C76B" stroke="#000000" stroke-width="0.75" d="M402.66797,346.66553c0,0,3.99902-22,0.66602-29.33398
	c-3.33301-7.33203-3.33398-17.33398-2-20s1.33398-20.66602-3.33301-25.33203c-4.66699-4.66797-22.00098-9.33398-24.66699-14
	c-2.66602-4.66797-14.66699-4.66797-16,2c-1.33301,6.66602-6,11.33203-1.33301,14c4.66699,2.66602,10.66699,15.33203,10,19.33203
	s1.33301,30,5.33301,30.66797c4,0.66602,12,13.33398,14.66699,18.66602
	C388.66797,347.99951,400.00195,349.99951,402.66797,346.66553z"/>
<path fill="#67CCE6" stroke="#000000" stroke-width="0.75" d="M390.00195,337.3335c0,0,2.66699-8.66797,6.66699-8.66797
	s1.99902-8.66602-1.33398-10.66602s-9.33301-5.33398-3.33301-9.33398s6.00098-9.33203,2.66699-12
	c-3.33398-2.66602-1.33398-4.66602,2.66602-7.33203c4-2.66797-4-10-8-10.66797c-4-0.66602-6-3.33203-8-7.33203s-6-4-9.33301-6.66797
	c-3.33301-2.66602-9.33301,0.66797-9.33301,6c0,5.33398-4,6.66797-2,10c2,3.33398,8.66699-5.33203,8,6
	c-0.66699,11.33398-3.33301,10.66602,2,13.33398c5.33301,2.66602,0.66699,6-2,10s7.33301,14,11.33301,16.66602
	C384.00195,329.3335,386.66895,336.66748,390.00195,337.3335z"/>
<circle fill="#FFFFFF" stroke="#000000" stroke-width="0.75" cx="383.00098" cy="302.3335" r="3"/>
<rect x="369.33398" y="282.66553" fill="#FFFFFF" stroke="#000000" stroke-width="0.75" width="8.66699" height="5.33398"/>
<rect x="375.33398" y="275.66553" fill="#FFFFFF" stroke="#000000" stroke-width="0.75" width="2.66699" height="6.66797"/>
<ellipse fill="#FFFFFF" stroke="#000000" stroke-width="0.75" cx="380.33398" cy="285.99951" rx="4.33398" ry="4"/>
<path fill="#87C76B" stroke="#000000" stroke-width="0.75" d="M414.66797,206.66602c0,0-7.33398,5.99951-3.33398,15.33301
	s4.66699,11.3335,4.66699,13.3335s5.99902-1.3335,7.33301-6s-3.99902-8.6665-4.66602-12S416.66797,205.99951,414.66797,206.66602z"
	/>
<path fill="#87C76B" stroke="#000000" stroke-width="0.75" d="M382,243.99951h6v-26.6665h-8.66602c0,0-4-3.99951-6-0.6665
	S372.66602,232,376,236.6665S382,243.99951,382,243.99951z"/>
<polygon fill="#FFFFFF" stroke="#000000" stroke-width="0.75" points="473.33301,347.99951 490,347.99951 490,336.66553 
	498,336.66553 498,296.66553 444.66699,296.66553 444.66699,273.3335 424.66699,273.3335 424.66699,253.3335 418,253.3335 
	418,238.66602 389.33301,238.66602 389.33301,226.66602 404,226.66602 404,203.33301 395.33301,203.33301 395.33301,199.33301 
	386.66699,199.33301 386.66699,203.33301 380.66699,203.33301 380.66699,224.66602 384.66699,224.66602 384.66699,237.33301 
	382,237.33301 382,263.99951 417.33301,263.99951 417.33301,274.66553 410.66699,274.66553 410.66699,313.3335 432.66699,313.3335 
	432.66699,319.99951 460,319.99951 460,335.3335 472.66699,335.3335 "/>
<polyline fill="none" stroke="#000000" stroke-width="2" points="351.33398,249.3335 351.33398,228.66602 384.66699,229.33301 "/>
<path fill="#FFFFFF" stroke="#000000" stroke-width="0.75" d="M364.16797,322.66553c0,0-2.66797,5.33203-1.33398,8.66602
	s-3.33301,1.33398-3.33301,1.33398l-0.66699,10.66602l5.33398,0.66797c0,0,4,0.66602,4-6c0-6.66797,0.66602-9.33398,0.66602-9.33398
	L364.16797,322.66553z"/>
<rect x="285.33398" y="83.33301" fill="#FFFFFF" stroke="#000000" stroke-width="0.75" width="2" height="8"/>
<ellipse fill="#FFFFFF" stroke="#000000" stroke-width="0.75" cx="291.08398" cy="93.99951" rx="6.25" ry="4"/>
<polygon fill="#B7B9BC" stroke="#000000" stroke-width="0.75" points="547.33301,228.25 533.08301,227.75 533.08301,184.75 
	547.33301,185 "/>
<rect x="554.33398" y="358.16553" fill="#FFFFFF" width="31" height="16"/>
<polygon fill="#FFFFFF" stroke="#000000" stroke-width="0.75" points="472.83301,169 472.83301,177.25 476.83301,177.25 
	476.83301,180.75 486.08301,180.75 486.08301,177.75 494.83301,177.75 494.83301,181 504.33301,181 504.33301,177.5 
	512.83301,177.5 512.83301,180.75 522.08301,180.75 522.08301,177 526.83301,177 526.83301,169.25 "/>
<rect x="533.33398" y="281.99951" fill="#231F20" stroke="#000000" stroke-width="0.75" width="10" height="10"/>
<rect x="535.33398" y="303.99951" fill="#FFFFFF" stroke="#000000" stroke-width="0.75" width="8" height="22"/>
<polygon fill="#FFFFFF" stroke="#000000" stroke-width="0.75" points="510.58301,245.99951 518,245.99951 518,187.33301 
	508.66699,187.33301 508.66699,193.33301 504.66699,193.33301 504.66699,202 509.33301,202 509.33301,208.66699 
	505.33301,208.66699 505.33301,213.33301 509.33301,213.33301 509.33301,219.33301 505.33301,219.33301 505.33301,224.66699 
	510,224.66699 510,232 504.66699,232 504.66699,238.66699 510.5,238.66699 "/>
<ellipse fill="none" stroke="#000000" stroke-width="0.75" cx="74" cy="95.99951" rx="10.66699" ry="12"/>
<polygon fill="#231F20" stroke="#000000" stroke-width="0.75" points="80.99951,104.33301 66.99951,105 73.6665,84.6665 "/>
<g>
	<path d="M70.91113,81.99951v-8.0835h1.13965l2.59082,4.08984c0.59961,0.94727,1.06738,1.79883,1.45117,2.62646l0.02393-0.01221
		c-0.09619-1.0791-0.12012-2.0625-0.12012-3.32178v-3.38232h0.9834v8.0835H75.9248l-2.56689-4.10156
		c-0.56348-0.8999-1.10303-1.82324-1.51074-2.69873l-0.03613,0.01221c0.06006,1.01904,0.0835,1.99072,0.0835,3.33398v3.4541
		H70.91113z"/>
</g>
<rect x="274.33398" y="63.99951" fill="#FFFFFF" stroke="#000000" stroke-width="0.75" width="6" height="10"/>
<polygon fill="#FFFFFF" stroke="#000000" stroke-width="0.75" points="230.83301,131 217.33301,131 217.33301,87.41943 
	230.33301,87.41943 "/>
<path fill="#FFFFFF" stroke="#000000" stroke-width="0.75" d="M249.33398,68.49951c0,8.14014,0,7.96973,0,44.16699H236
	c0,0,0-30.74268,0-44.33398"/>
<g>
	<path d="M586.83398,365.49951h-0.02832l-1.58203,0.85352l-0.23828-0.9375l1.98828-1.06445h1.05078v9.10547h-1.19043V365.49951z"/>
</g>
<g>
	<path d="M536.72754,367.20654v-0.75586l0.96582-0.9375c2.32617-2.21484,3.37695-3.39063,3.39063-4.76367
		c0-0.92383-0.44824-1.7793-1.80664-1.7793c-0.82617,0-1.51367,0.41992-1.93359,0.77148l-0.39258-0.86914
		c0.63086-0.53125,1.52734-0.92383,2.57813-0.92383c1.96094,0,2.78711,1.34375,2.78711,2.64648
		c0,1.68164-1.21875,3.04102-3.1377,4.88867l-0.72754,0.67188v0.0293h4.08984v1.02148H536.72754z"/>
</g>
<g>
	<g>
		<path d="M491.99805,408.24756c0.34961,0.22461,1.16211,0.57422,2.0166,0.57422c1.58301,0,2.07324-1.00977,2.05957-1.76563
			c-0.01367-1.27344-1.16309-1.82031-2.35352-1.82031h-0.68652v-0.92578h0.68652c0.89648,0,2.03125-0.46094,2.03125-1.53906
			c0-0.72852-0.46289-1.37305-1.59766-1.37305c-0.72754,0-1.42773,0.32227-1.82031,0.60156l-0.32227-0.89648
			c0.47656-0.34961,1.40039-0.69922,2.38086-0.69922c1.79297,0,2.60547,1.06445,2.60547,2.16992
			c0,0.93945-0.56055,1.73633-1.68066,2.14258v0.0293c1.12012,0.22461,2.03125,1.06445,2.03125,2.33984
			c0,1.45508-1.13477,2.73047-3.31934,2.73047c-1.02344,0-1.91992-0.32227-2.36719-0.61719L491.99805,408.24756z"/>
	</g>
</g>
<g>
	<path d="M479.33398,370.94482v-2.47852h-4.23047v-0.8125l4.0625-5.8125h1.33105v5.6582h1.27441v0.9668h-1.27441v2.47852H479.33398z
		 M479.33398,367.49951v-3.03906c0-0.47656,0.01465-0.95313,0.04199-1.42969h-0.04199
		c-0.28027,0.5332-0.50488,0.92578-0.75684,1.3457l-2.22656,3.0957v0.02734H479.33398z"/>
</g>
<g>
	<path d="M459.39844,306.74756h-3.47363l-0.35059,2.33789c0.21094-0.02734,0.40625-0.05469,0.74219-0.05469
		c0.70117,0,1.40137,0.1543,1.96191,0.49023c0.71387,0.40625,1.30273,1.18945,1.30273,2.33789
		c0,1.7793-1.41504,3.11133-3.38965,3.11133c-0.99512,0-1.83594-0.28125-2.26953-0.56055l0.30859-0.93945
		c0.37793,0.22461,1.12012,0.50391,1.94727,0.50391c1.16211,0,2.15625-0.75586,2.15625-1.97461
		c-0.01367-1.17578-0.79883-2.01758-2.61914-2.01758c-0.51855,0-0.92383,0.05664-1.26074,0.09961l0.58887-4.37109h4.35547V306.74756
		z"/>
</g>
<g>
	<path d="M402.2959,247.896c-0.25195-0.01563-0.57422,0-0.92383,0.05469c-1.93359,0.32227-2.95605,1.73828-3.16602,3.23633h0.04102
		c0.43555-0.57422,1.19141-1.05078,2.19922-1.05078c1.61133,0,2.74609,1.16211,2.74609,2.94141
		c0,1.66797-1.13477,3.20898-3.02539,3.20898c-1.94727,0-3.22266-1.51367-3.22266-3.88086
		c0-1.79297,0.64453-3.20703,1.54102-4.10352c0.75684-0.74414,1.76563-1.20508,2.91406-1.3457
		c0.36426-0.05664,0.67188-0.07031,0.89648-0.07031V247.896z M400.18066,255.3335c1.05078,0,1.76563-0.88281,1.76563-2.18555
		s-0.74316-2.08789-1.87695-2.08789c-0.74316,0-1.42969,0.46289-1.76563,1.12109c-0.08398,0.14063-0.14063,0.32227-0.14063,0.54688
		c0.0293,1.49805,0.71484,2.60547,2.00391,2.60547H400.18066z"/>
</g>
<g>
	<path d="M394.50098,210.68701v0.8125l-3.96387,8.29297h-1.27539l3.95117-8.05469v-0.02734h-4.45508v-1.02344H394.50098z"/>
</g>
<g>
	<path d="M382.81055,366.03662c-1.00781-0.47656-1.44238-1.26074-1.44238-2.04492c0-1.44336,1.21777-2.42383,2.81543-2.42383
		c1.76465,0,2.64746,1.10742,2.64746,2.24219c0,0.76953-0.37793,1.5957-1.49902,2.12891v0.04102
		c1.13477,0.44922,1.83496,1.24707,1.83496,2.35352c0,1.58301-1.3584,2.64844-3.0957,2.64844
		c-1.90527,0-3.05371-1.13477-3.05371-2.46582c0-1.14941,0.68652-1.96191,1.80664-2.4375L382.81055,366.03662z M385.91992,368.46045
		c0-1.10742-0.76953-1.63965-2.00195-1.99023c-1.06445,0.30859-1.63965,1.00977-1.63965,1.87695
		c-0.04199,0.92578,0.65918,1.73828,1.82129,1.73828C385.20605,370.08545,385.91992,369.38428,385.91992,368.46045z
		 M382.53125,363.90771c0,0.91016,0.68555,1.40039,1.73633,1.68066c0.78418-0.2666,1.38672-0.82715,1.38672-1.65332
		c0-0.72852-0.43359-1.48438-1.54102-1.48438C383.09082,362.45068,382.53125,363.12256,382.53125,363.90771z"/>
</g>
<g>
	<path d="M386.1748,290.59131c0.26563,0.0293,0.57422,0,0.99414-0.04102c0.71484-0.09863,1.38672-0.39258,1.90527-0.88281
		c0.60254-0.54688,1.03613-1.34473,1.2041-2.42383h-0.04102c-0.50391,0.61719-1.23242,0.98047-2.14355,0.98047
		c-1.63867,0-2.68945-1.23242-2.68945-2.78711c0-1.72266,1.24707-3.23535,3.11035-3.23535c1.8623,0,3.01172,1.5127,3.01172,3.83789
		c0,2.00293-0.67285,3.40332-1.56934,4.27246c-0.7002,0.68555-1.66699,1.10645-2.64746,1.21875
		c-0.44824,0.07031-0.84082,0.08398-1.13477,0.07031V290.59131z M388.40137,283.14014c-1.03613,0-1.77832,0.92383-1.77832,2.21289
		c0,1.13477,0.68652,1.93359,1.75098,1.93359c0.82617,0,1.4707-0.40625,1.79297-0.95313
		c0.07031-0.11133,0.11133-0.25195,0.11133-0.44824c0-1.55469-0.57422-2.74512-1.8623-2.74512H388.40137z"/>
</g>
<g>
	<path d="M468.67578,223.30518h-0.02734l-1.58301,0.854l-0.2373-0.93848l1.98828-1.06445h1.05078v9.10498h-1.19141V223.30518z"/>
	<path d="M479.23438,226.61084c0,3.0957-1.14844,4.80469-3.16602,4.80469c-1.7793,0-2.98438-1.66699-3.01172-4.67871
		c0-3.05371,1.31641-4.73438,3.16602-4.73438C478.14063,222.00244,479.23438,223.71094,479.23438,226.61084z M474.28906,226.75098
		c0,2.36719,0.72852,3.71191,1.84961,3.71191c1.25977,0,1.8623-1.4707,1.8623-3.79639c0-2.24121-0.57422-3.71191-1.84863-3.71191
		C475.07422,222.95459,474.28906,224.27148,474.28906,226.75098z"/>
</g>
<g>
	<path d="M468.81934,257.37646h-0.02734l-1.58301,0.85449l-0.2373-0.93848l1.98828-1.06445h1.05078v9.10547h-1.19141V257.37646z"/>
	<path d="M476.00098,257.37646h-0.02734l-1.58301,0.85449l-0.2373-0.93848l1.98828-1.06445h1.05078v9.10547h-1.19141V257.37646z"/>
</g>
<g>
	<path d="M103.97168,307.00146h-0.02832l-1.58203,0.85352l-0.23828-0.9375l1.98828-1.06445h1.05078v9.10352h-1.19043V307.00146z"/>
	<path d="M108.47852,314.95654v-0.75586l0.96582-0.9375c2.3252-2.21484,3.37598-3.39063,3.38965-4.76367
		c0-0.92383-0.44775-1.7793-1.80664-1.7793c-0.82617,0-1.51318,0.41992-1.93359,0.77148l-0.3916-0.86914
		c0.62988-0.53125,1.52637-0.92383,2.57715-0.92383c1.96094,0,2.78711,1.34375,2.78711,2.64648
		c0,1.68164-1.21875,3.04102-3.13672,4.88867l-0.729,0.67188v0.0293h4.08984v1.02148H108.47852z"/>
</g>
<g>
	<path d="M477.04297,156.43359h-0.02832l-1.58203,0.854l-0.23828-0.93848l1.98828-1.06445h1.05078v9.10498h-1.19043V156.43359z"/>
	<path d="M481.5498,164.38965v-0.75635l0.96582-0.93848c2.3252-2.21338,3.37598-3.39014,3.38965-4.7627
		c0-0.92432-0.44727-1.77881-1.80664-1.77881c-0.82617,0-1.5127,0.41992-1.93359,0.77051l-0.3916-0.86865
		c0.62988-0.53223,1.52637-0.92432,2.57715-0.92432c1.96094,0,2.78711,1.34473,2.78711,2.64746
		c0,1.68066-1.21875,3.03955-3.13672,4.88818l-0.72852,0.67236v0.02832h4.08984v1.02246H481.5498z"/>
</g>
<g>
	<path d="M514.04297,210.43359h-0.02832l-1.58203,0.854l-0.23828-0.93848l1.98828-1.06445h1.05078v9.10498h-1.19043V210.43359z"/>
	<path d="M518.5498,218.38965v-0.75635l0.96582-0.93848c2.3252-2.21338,3.37598-3.39014,3.38965-4.7627
		c0-0.92432-0.44727-1.77881-1.80664-1.77881c-0.82617,0-1.5127,0.41992-1.93359,0.77051l-0.3916-0.86865
		c0.62988-0.53223,1.52637-0.92432,2.57715-0.92432c1.96094,0,2.78711,1.34473,2.78711,2.64746
		c0,1.68066-1.21875,3.03955-3.13672,4.88818l-0.72852,0.67236v0.02832h4.08984v1.02246H518.5498z"/>
</g>
<g>
	<path d="M114.14355,175.54346h-0.02832l-1.58203,0.854l-0.23828-0.93848l1.98828-1.06445h1.05078v9.10498h-1.19043V175.54346z"/>
	<path d="M118.65039,183.49951v-0.75635l0.96582-0.93848c2.3252-2.21338,3.37598-3.39014,3.38965-4.7627
		c0-0.92432-0.44775-1.77881-1.80664-1.77881c-0.82617,0-1.51318,0.41992-1.93359,0.77051l-0.3916-0.86865
		c0.62988-0.53223,1.52637-0.92432,2.57715-0.92432c1.96094,0,2.78711,1.34473,2.78711,2.64746
		c0,1.68066-1.21875,3.03955-3.13672,4.88818l-0.729,0.67236v0.02832h4.08984v1.02246H118.65039z"/>
</g>
<g>
	<g>
		<path d="M524.5166,269.55029h-0.02832l-1.58203,0.85547l-0.23828-0.93945l1.98828-1.06445h1.05078v9.10547h-1.19043V269.55029z"/>
	</g>
	<g>
		<path d="M529.31641,276.09326c0.35156,0.22266,1.16309,0.57422,2.01758,0.57422c1.58301,0,2.07324-1.00977,2.05859-1.76563
			c-0.01367-1.27539-1.16211-1.82031-2.35254-1.82031h-0.68652v-0.92578h0.68652c0.89648,0,2.03125-0.46094,2.03125-1.54102
			c0-0.72852-0.46191-1.37305-1.59668-1.37305c-0.72852,0-1.42969,0.32227-1.82129,0.60352l-0.32227-0.89648
			c0.47559-0.34961,1.40137-0.70117,2.38184-0.70117c1.79297,0,2.60547,1.06445,2.60547,2.17188
			c0,0.9375-0.56055,1.73633-1.68164,2.14258v0.0293c1.12109,0.22266,2.03125,1.06445,2.03125,2.33789
			c0,1.45703-1.13477,2.73242-3.32031,2.73242c-1.02148,0-1.91797-0.32227-2.36719-0.61719L529.31641,276.09326z"/>
	</g>
</g>
<g>
	<g>
		<path d="M491.125,102.64893h-0.02832l-1.58203,0.854l-0.23828-0.93848l1.98828-1.06445h1.05078v9.10498H491.125V102.64893z"/>
	</g>
	<g>
		<path d="M495.9248,109.19043c0.35156,0.22412,1.16309,0.57422,2.01758,0.57422c1.58301,0,2.07324-1.00879,2.05859-1.76514
			c-0.01367-1.27441-1.16211-1.8208-2.35254-1.8208h-0.68652v-0.9248h0.68652c0.89648,0,2.03125-0.46191,2.03125-1.54053
			c0-0.72852-0.46191-1.37305-1.59668-1.37305c-0.72852,0-1.42969,0.32227-1.82129,0.60254l-0.32227-0.89648
			c0.47559-0.3501,1.40137-0.7002,2.38184-0.7002c1.79297,0,2.60547,1.06445,2.60547,2.1709
			c0,0.93848-0.56055,1.73682-1.68164,2.14307v0.02832c1.12109,0.22412,2.03125,1.06445,2.03125,2.33936
			c0,1.45654-1.13477,2.73145-3.32031,2.73145c-1.02148,0-1.91797-0.32227-2.36719-0.6167L495.9248,109.19043z"/>
	</g>
</g>
<g>
	<g>
		<path d="M372.5166,135.9541h-0.02832l-1.58203,0.854l-0.23828-0.93848l1.98828-1.06445h1.05078v9.10498h-1.19043V135.9541z"/>
	</g>
	<g>
		<path d="M377.31641,142.49561c0.35156,0.22412,1.16309,0.57422,2.01758,0.57422c1.58301,0,2.07324-1.00879,2.05859-1.76514
			c-0.01367-1.27441-1.16211-1.8208-2.35254-1.8208h-0.68652v-0.9248h0.68652c0.89648,0,2.03125-0.46191,2.03125-1.54053
			c0-0.72852-0.46191-1.37305-1.59668-1.37305c-0.72852,0-1.42969,0.32227-1.82129,0.60254l-0.32227-0.89648
			c0.47559-0.3501,1.40137-0.7002,2.38184-0.7002c1.79297,0,2.60547,1.06445,2.60547,2.1709
			c0,0.93848-0.56055,1.73682-1.68164,2.14307v0.02832c1.12109,0.22412,2.03125,1.06445,2.03125,2.33936
			c0,1.45654-1.13477,2.73145-3.32031,2.73145c-1.02148,0-1.91797-0.32227-2.36719-0.6167L377.31641,142.49561z"/>
	</g>
</g>
<g>
	<g>
		<path d="M70.51611,225.2876H70.4873l-1.58203,0.854l-0.23828-0.93848l1.98828-1.06445h1.05078v9.10498h-1.19043v-7.95605H70.51611
			z"/>
	</g>
	<g>
		<path d="M75.31543,231.8291c0.35156,0.22412,1.16357,0.57422,2.01758,0.57422c1.58301,0,2.07324-1.00879,2.05859-1.76514
			c-0.01367-1.27441-1.16211-1.8208-2.35254-1.8208h-0.68652v-0.9248h0.68652c0.89648,0,2.03125-0.46191,2.03125-1.54053
			c0-0.72852-0.46143-1.37305-1.59668-1.37305c-0.72852,0-1.42969,0.32227-1.82129,0.60254l-0.32227-0.89648
			c0.47559-0.3501,1.40137-0.7002,2.38184-0.7002c1.79297,0,2.60547,1.06445,2.60547,2.1709
			c0,0.93848-0.56055,1.73682-1.68164,2.14307v0.02832c1.12109,0.22412,2.03125,1.06445,2.03125,2.33936
			c0,1.45654-1.13477,2.73145-3.32031,2.73145c-1.021,0-1.91797-0.32227-2.36719-0.6167L75.31543,231.8291z"/>
	</g>
</g>
<g>
	<g>
		<path d="M523.68457,311.37646h-0.02734l-1.58398,0.85547l-0.2373-0.93945l1.98926-1.06445h1.05078v9.10547h-1.19141V311.37646z"/>
	</g>
	<g>
		<path d="M532.00098,319.3335v-2.48047h-4.23047v-0.8125l4.0625-5.8125h1.33008v5.66016h1.27539v0.96484h-1.27539v2.48047
			H532.00098z M532.00098,315.88818v-3.04102c0-0.47656,0.01367-0.95117,0.04199-1.42773h-0.04199
			c-0.28027,0.53125-0.50391,0.92383-0.75586,1.34375l-2.22754,3.0957v0.0293H532.00098z"/>
	</g>
</g>
<g>
	<path d="M429.26758,421.89014h-0.02734l-1.58398,0.85352l-0.2373-0.93945l1.98926-1.06445h1.05078v9.10547h-1.19141V421.89014z"/>
	<path d="M439.20898,421.77686h-3.47461l-0.34961,2.33984c0.20996-0.0293,0.40625-0.05664,0.74219-0.05664
		c0.70117,0,1.40039,0.1543,1.96094,0.49023c0.71484,0.40625,1.30273,1.19141,1.30273,2.33984
		c0,1.7793-1.41406,3.10938-3.38965,3.10938c-0.99512,0-1.83496-0.2793-2.26855-0.56055l0.30762-0.9375
		c0.37793,0.22266,1.12012,0.50391,1.94727,0.50391c1.16309,0,2.15723-0.75586,2.15723-1.97461
		c-0.01367-1.17773-0.79883-2.01758-2.61914-2.01758c-0.51953,0-0.9248,0.05664-1.26172,0.09766l0.58887-4.37109h4.35645V421.77686z
		"/>
</g>
<g>
	<path d="M289.75977,400.84131h-0.02832l-1.58301,0.85547l-0.2373-0.93945l1.98828-1.06445h1.05078v9.10547h-1.19043V400.84131z"/>
	<path d="M299.46289,400.56201c-0.25195-0.01367-0.57422,0-0.92383,0.05469c-1.93359,0.32227-2.95605,1.73828-3.16699,3.23633
		h0.04199c0.43457-0.57422,1.19141-1.05078,2.19922-1.05078c1.61133,0,2.74609,1.16406,2.74609,2.94141
		c0,1.66797-1.13477,3.20898-3.02539,3.20898c-1.94727,0-3.22266-1.51367-3.22266-3.88086
		c0-1.79297,0.64453-3.20703,1.54102-4.10352c0.75684-0.74219,1.76563-1.20508,2.91406-1.3457
		c0.36426-0.05469,0.67188-0.07031,0.89648-0.07031V400.56201z M297.34766,407.99951c1.05078,0,1.76563-0.88281,1.76563-2.18555
		s-0.74316-2.08594-1.87695-2.08594c-0.74316,0-1.42969,0.46094-1.76563,1.11914c-0.08398,0.14063-0.14063,0.32227-0.14063,0.54688
		c0.02832,1.49805,0.71484,2.60547,2.00391,2.60547H297.34766z"/>
</g>
<g>
	<path d="M164.88086,362.71045h-0.02832l-1.58301,0.85352l-0.2373-0.9375l1.98828-1.06445h1.05078v9.10547h-1.19043V362.71045z"/>
	<path d="M175.29785,361.56201v0.8125l-3.96387,8.29297h-1.27441l3.9502-8.05469v-0.0293h-4.45508v-1.02148H175.29785z"/>
</g>
<g>
	<path d="M55.19141,157.45264h-0.02783l-1.58301,0.854l-0.23779-0.93848l1.98877-1.06445h1.05078v9.10498h-1.19092V157.45264z"/>
	<path d="M61.37793,160.61816c-1.00781-0.47607-1.44189-1.26074-1.44189-2.04541c0-1.44238,1.21826-2.42285,2.81543-2.42285
		c1.76465,0,2.64697,1.10645,2.64697,2.24121c0,0.77002-0.37793,1.59668-1.49854,2.12891v0.04199
		c1.13477,0.44824,1.83447,1.24658,1.83447,2.35352c0,1.58252-1.3584,2.64746-3.09521,2.64746
		c-1.90479,0-3.05371-1.13477-3.05371-2.46533c0-1.14893,0.68604-1.96143,1.80713-2.4375L61.37793,160.61816z M64.48828,163.0415
		c0-1.10645-0.771-1.63916-2.00293-1.98926c-1.06445,0.30811-1.63965,1.00879-1.63965,1.87695
		c-0.0415,0.9248,0.65918,1.7373,1.82129,1.7373C63.77393,164.6665,64.48828,163.96582,64.48828,163.0415z M61.09814,158.48877
		c0,0.91064,0.68604,1.40088,1.73682,1.68115c0.78418-0.26611,1.38672-0.82666,1.38672-1.65283
		c0-0.72852-0.43359-1.48486-1.54102-1.48486C61.6582,157.03223,61.09814,157.70459,61.09814,158.48877z"/>
</g>
<g>
	<path d="M276.54688,189.83643h-0.02734l-1.58301,0.854l-0.23828-0.93848l1.98926-1.06445h1.05078v9.10498h-1.19141V189.83643z"/>
	<path d="M281.76758,196.92383c0.2666,0.02832,0.57422,0,0.99512-0.04199c0.71387-0.09814,1.38672-0.39209,1.9043-0.88232
		c0.60254-0.54639,1.03711-1.34473,1.20508-2.42334h-0.04199c-0.50391,0.61621-1.23242,0.98047-2.14355,0.98047
		c-1.63867,0-2.68945-1.23242-2.68945-2.7876c0-1.72266,1.24707-3.23535,3.11035-3.23535c1.8623,0,3.01172,1.5127,3.01172,3.83789
		c0,2.00293-0.67285,3.40381-1.56934,4.27246c-0.7002,0.68604-1.66699,1.10645-2.64746,1.21826
		c-0.44824,0.07031-0.84082,0.08447-1.13477,0.07031V196.92383z M283.99512,189.47217c-1.03711,0-1.7793,0.92432-1.7793,2.21289
		c0,1.13477,0.68652,1.93311,1.75098,1.93311c0.82617,0,1.4707-0.40625,1.79297-0.95264
		c0.07031-0.11182,0.1123-0.25195,0.1123-0.44824c0-1.55469-0.57422-2.74512-1.86328-2.74512H283.99512z"/>
</g>
<g>
	<path d="M317.33398,261.92725v-0.75586l0.9668-0.93848c2.32422-2.21387,3.375-3.38965,3.38965-4.7627
		c0-0.92383-0.44824-1.7793-1.80762-1.7793c-0.82617,0-1.51172,0.41992-1.93262,0.77148l-0.3916-0.86914
		c0.62988-0.53223,1.52637-0.92383,2.57617-0.92383c1.96191,0,2.78809,1.34375,2.78809,2.64648
		c0,1.68164-1.21875,3.04004-3.1377,4.88867l-0.72852,0.67188v0.0293h4.08984v1.02148H317.33398z"/>
	<path d="M330.56641,257.27686c0,3.0957-1.14844,4.80469-3.16504,4.80469c-1.7793,0-2.9834-1.66602-3.01172-4.67773
		c0-3.05469,1.31641-4.73438,3.16504-4.73438C329.47461,252.66943,330.56641,254.37744,330.56641,257.27686z M325.62207,257.41748
		c0,2.36719,0.72852,3.71191,1.84863,3.71191c1.26172,0,1.86328-1.4707,1.86328-3.7959c0-2.24219-0.57422-3.71289-1.84863-3.71289
		C326.40625,253.62061,325.62207,254.93799,325.62207,257.41748z"/>
</g>
<g>
	<path d="M228.28613,286.66748v-0.75781l0.96582-0.9375c2.3252-2.21289,3.37598-3.39063,3.39063-4.76367
		c0-0.92383-0.44824-1.77734-1.80762-1.77734c-0.82617,0-1.5127,0.41992-1.93262,0.76953l-0.39258-0.86914
		c0.63086-0.53125,1.52734-0.92383,2.57715-0.92383c1.96191,0,2.78809,1.3457,2.78809,2.64844
		c0,1.67969-1.21875,3.03906-3.1377,4.88672l-0.72852,0.67383v0.02734h4.08984v1.02344H228.28613z"/>
	<path d="M238.14258,278.71045h-0.02734l-1.58301,0.85352l-0.23828-0.9375l1.98926-1.06445h1.05078v9.10547h-1.19141V278.71045z"/>
</g>
<g>
	<path d="M379.70117,84.72266v-0.75635l0.9668-0.93848c2.32422-2.21338,3.375-3.39014,3.38965-4.7627
		c0-0.92432-0.44824-1.77881-1.80762-1.77881c-0.82617,0-1.51172,0.41992-1.93262,0.77051l-0.3916-0.86865
		c0.62988-0.53223,1.52637-0.92432,2.57617-0.92432c1.96191,0,2.78809,1.34473,2.78809,2.64746
		c0,1.68066-1.21875,3.03955-3.1377,4.88818l-0.72852,0.67236v0.02832h4.08984v1.02246H379.70117z"/>
	<path d="M386.88281,84.72266v-0.75635l0.9668-0.93848c2.32422-2.21338,3.375-3.39014,3.38965-4.7627
		c0-0.92432-0.44824-1.77881-1.80762-1.77881c-0.82617,0-1.51172,0.41992-1.93262,0.77051l-0.3916-0.86865
		c0.62988-0.53223,1.52637-0.92432,2.57617-0.92432c1.96191,0,2.78809,1.34473,2.78809,2.64746
		c0,1.68066-1.21875,3.03955-3.1377,4.88818l-0.72852,0.67236v0.02832h4.08984v1.02246H386.88281z"/>
</g>
<g>
	<path d="M241.16016,83.84521v-0.75635l0.96582-0.93848c2.32617-2.21338,3.37695-3.39014,3.39063-4.7627
		c0-0.92432-0.44824-1.77881-1.80664-1.77881c-0.82617,0-1.51367,0.41992-1.93359,0.77051l-0.39258-0.86865
		c0.63086-0.53223,1.52734-0.92432,2.57813-0.92432c1.96094,0,2.78711,1.34473,2.78711,2.64746
		c0,1.68066-1.21875,3.03955-3.1377,4.88818l-0.72754,0.67236v0.02832h4.08984v1.02246H241.16016z"/>
	<path d="M248.63574,82.43066c0.35059,0.22412,1.16211,0.57422,2.01758,0.57422c1.58203,0,2.07227-1.00879,2.05859-1.76514
		c-0.01367-1.27441-1.16211-1.8208-2.35352-1.8208h-0.68555v-0.9248h0.68555c0.89648,0,2.03125-0.46191,2.03125-1.54053
		c0-0.72852-0.46191-1.37305-1.59668-1.37305c-0.72754,0-1.42871,0.32227-1.82129,0.60254l-0.32227-0.89648
		c0.47656-0.3501,1.40137-0.7002,2.38184-0.7002c1.79297,0,2.60547,1.06445,2.60547,2.1709
		c0,0.93848-0.56055,1.73682-1.68066,2.14307v0.02832c1.12012,0.22412,2.03125,1.06445,2.03125,2.33936
		c0,1.45654-1.13477,2.73145-3.32031,2.73145c-1.02246,0-1.91895-0.32227-2.36719-0.6167L248.63574,82.43066z"/>
</g>
<g>
	<path d="M298.2168,61.05615V60.2998l0.9668-0.93848c2.32422-2.21338,3.375-3.39014,3.39063-4.7627
		c0-0.92432-0.44922-1.77881-1.80859-1.77881c-0.82617,0-1.51172,0.41992-1.93164,0.77051l-0.39258-0.86865
		c0.63086-0.53223,1.52734-0.92432,2.57617-0.92432c1.96289,0,2.78906,1.34473,2.78906,2.64746
		c0,1.68066-1.21875,3.03955-3.13867,4.88818l-0.72852,0.67236v0.02832h4.08984v1.02246H298.2168z"/>
	<path d="M309.20898,61.05615v-2.47949h-4.23047v-0.8125l4.0625-5.81299h1.33008v5.65918h1.27539v0.96631h-1.27539v2.47949
		H309.20898z M309.20898,57.61035V54.5708c0-0.47656,0.01367-0.95264,0.04102-1.42871h-0.04102
		c-0.28125,0.53223-0.50391,0.92432-0.75586,1.34473l-2.22852,3.0957v0.02783H309.20898z"/>
</g>
<g>
	<path d="M504.63965,81.6499v-0.75635l0.96582-0.93848c2.32617-2.21338,3.37695-3.39014,3.39063-4.7627
		c0-0.92432-0.44824-1.77881-1.80664-1.77881c-0.82617,0-1.51367,0.41992-1.93359,0.77051l-0.39258-0.86865
		c0.63086-0.53223,1.52734-0.92432,2.57813-0.92432c1.96094,0,2.78711,1.34473,2.78711,2.64746
		c0,1.68066-1.21875,3.03955-3.1377,4.88818l-0.72754,0.67236v0.02832h4.08984v1.02246H504.63965z"/>
	<path d="M517.01758,73.41357c-0.25195-0.01416-0.57422,0-0.92383,0.05566c-1.93359,0.32227-2.95508,1.7373-3.16602,3.23584h0.04199
		c0.43457-0.57422,1.19043-1.05029,2.19922-1.05029c1.61035,0,2.74512,1.1626,2.74512,2.94141
		c0,1.66699-1.13477,3.20801-3.02539,3.20801c-1.94727,0-3.22168-1.51318-3.22168-3.88037c0-1.79297,0.64453-3.20752,1.54102-4.104
		c0.75684-0.74268,1.76465-1.20459,2.91309-1.34473c0.36523-0.05615,0.67285-0.07031,0.89648-0.07031V73.41357z M514.90234,80.85156
		c1.05078,0,1.76563-0.88232,1.76563-2.18506s-0.74219-2.0874-1.87695-2.0874c-0.74219,0-1.42871,0.4624-1.76563,1.12061
		c-0.08398,0.14014-0.13965,0.32227-0.13965,0.54639c0.02832,1.49854,0.71387,2.60547,2.00293,2.60547H514.90234z"/>
</g>
<path fill="#87C76B" stroke="#000000" stroke-width="0.75" d="M402.33398,102.99951c0,0,39.5-41.25,42.5-41.5s-71.75-2-71.75-2
	s-9.25,4-10.5,7s-7.5,4.75-9,5s-3.5,2.75-4,4.5s-3,2.75-4.5,4.5s-4,7.75,3.5,10.75s9.25,1.25,15,3s12,4,18.25,5.25s11,5.75,12.75,5
	S399.58398,105.99951,402.33398,102.99951z"/>
<rect x="382.08398" y="113.99951" fill="#FFFFFF" width="13.75" height="9.25"/>
<g>
	<path d="M135.35449,246.22412l-1.25977,3.81641h-1.62109l4.12305-12.13525h1.89063l4.1416,12.13525h-1.6748l-1.2959-3.81641
		H135.35449z M139.33398,244.99951l-1.18848-3.49316c-0.27051-0.79199-0.4502-1.51221-0.62988-2.21436h-0.03613
		c-0.18066,0.72021-0.37793,1.45801-0.6123,2.19629l-1.18848,3.51123H139.33398z"/>
</g>
<g>
	<path d="M23.71533,241.06445c0.68457-0.14404,1.76514-0.25195,2.86328-0.25195c1.56689,0,2.57471,0.27002,3.33105,0.88232
		c0.62988,0.46826,1.00781,1.18799,1.00781,2.14258c0,1.17041-0.77393,2.19727-2.05225,2.66406v0.03711
		c1.15234,0.28711,2.50244,1.24219,2.50244,3.04297c0,1.04395-0.41406,1.83594-1.02637,2.42969
		c-0.84619,0.77539-2.21436,1.13477-4.19482,1.13477c-1.08057,0-1.90869-0.07227-2.43115-0.14453V241.06445L23.71533,241.06445z
		 M25.28271,246.03467h1.42236c1.65625,0,2.62891-0.86475,2.62891-2.03516c0-1.42236-1.08105-1.98096-2.66504-1.98096
		c-0.72021,0-1.13428,0.0542-1.38623,0.1084V246.03467z M25.28271,251.84912c0.30615,0.05469,0.75586,0.07227,1.31348,0.07227
		c1.62109,0,3.11523-0.59375,3.11523-2.3584c0-1.65625-1.42236-2.34082-3.13281-2.34082h-1.29639v4.62695H25.28271z"/>
</g>
<g>
	<path d="M153.70117,313.05615v-0.75586l0.96582-0.93945c2.3252-2.21289,3.37598-3.38867,3.39063-4.76172
		c0-0.92383-0.44824-1.7793-1.80762-1.7793c-0.82617,0-1.5127,0.41992-1.93262,0.77148l-0.39258-0.86914
		c0.63086-0.5332,1.52734-0.92383,2.57715-0.92383c1.96191,0,2.78809,1.34375,2.78809,2.64648
		c0,1.68164-1.21875,3.03906-3.1377,4.88867l-0.72852,0.67188v0.0293h4.08984v1.02148H153.70117z"/>
	<path d="M160.88281,313.05615v-0.75586l0.96582-0.93945c2.3252-2.21289,3.37598-3.38867,3.39063-4.76172
		c0-0.92383-0.44824-1.7793-1.80762-1.7793c-0.82617,0-1.5127,0.41992-1.93262,0.77148l-0.39258-0.86914
		c0.63086-0.5332,1.52734-0.92383,2.57715-0.92383c1.96191,0,2.78809,1.34375,2.78809,2.64648
		c0,1.68164-1.21875,3.03906-3.1377,4.88867l-0.72852,0.67188v0.0293h4.08984v1.02148H160.88281z"/>
</g>
<g>
	<path d="M458.2168,20.38965V19.6333l0.96582-0.93848c2.32617-2.21338,3.37695-3.39014,3.39063-4.7627
		c0-0.92432-0.44824-1.77881-1.80664-1.77881c-0.82617,0-1.51367,0.41992-1.93359,0.77051l-0.39258-0.86865
		c0.63086-0.53223,1.52734-0.92432,2.57813-0.92432c1.96094,0,2.78711,1.34473,2.78711,2.64697
		c0,1.68115-1.21875,3.04004-3.1377,4.88867l-0.72754,0.67236v0.02832h4.08984v1.02246H458.2168z"/>
	<path d="M470.83301,12.32129h-3.47363l-0.35059,2.33936c0.21094-0.02832,0.40625-0.05615,0.74219-0.05615
		c0.70117,0,1.40137,0.1543,1.96191,0.49023c0.71387,0.40625,1.30273,1.19092,1.30273,2.33936
		c0,1.77881-1.41504,3.10986-3.38965,3.10986c-0.99512,0-1.83594-0.28027-2.26953-0.56055l0.30859-0.93848
		c0.37793,0.22412,1.12012,0.50439,1.94727,0.50439c1.16211,0,2.15625-0.75635,2.15625-1.9751
		c-0.01367-1.17676-0.79883-2.01709-2.61914-2.01709c-0.51855,0-0.92383,0.05615-1.26074,0.09814l0.58887-4.37061h4.35547V12.32129z
		"/>
</g>
<g>
	<path d="M551.71484,213.55664v-0.75635l0.9668-0.93848c2.3252-2.21338,3.37598-3.39014,3.38965-4.7627
		c0-0.92432-0.44824-1.77881-1.80664-1.77881c-0.82617,0-1.5127,0.41992-1.93262,0.77051l-0.39258-0.86865
		c0.62988-0.53223,1.52637-0.92432,2.57715-0.92432c1.96094,0,2.78809,1.34473,2.78809,2.64746
		c0,1.68066-1.21875,3.03955-3.1377,4.88818l-0.72852,0.67236v0.02832h4.08984v1.02246H551.71484z"/>
	<path d="M564.80859,204.45166v0.8125l-3.96484,8.29248h-1.27441l3.9502-8.0542v-0.02832h-4.4541v-1.02246H564.80859z"/>
</g>
<circle fill="#FFFFFF" stroke="#000000" stroke-width="0.75" cx="375.33398" cy="274.66699" r="2.6665"/>
<rect x="338.66699" y="120.8335" fill="#FFFFFF" width="15" height="4"/>
</svg>
